<svg width="16" height="16" viewBox="0 0 16 16" xmlns="http://www.w3.org/2000/svg">
  <circle cx="8" cy="8" r="8" fill="#9FD7C8"/>
  <path d="M4.528 8.044q0-1.094.327-1.836.245-.547.665-.981.424-.435.927-.645.67-.283 1.543-.283 1.582 0 2.53.981.952.982.952 2.73 0 1.733-.943 2.715-.942.976-2.52.976-1.596 0-2.538-.972-.943-.976-.943-2.685m1.49-.049q0 1.216.561 1.846.562.625 1.426.625t1.416-.62q.557-.625.557-1.87 0-1.23-.542-1.836-.538-.606-1.431-.606-.894 0-1.44.615-.547.61-.547 1.846" style="font-weight:700;font-size:10px;font-family:Arial;dominant-baseline:central;text-anchor:middle" aria-label="O"/>
</svg>
